inDegrees=no
num_controls=7
num_derivatives=13
num_iterations=186
num_multipliers=7
num_parameters=0
num_slacks=7
num_states=26
objective=4.912925
objective_accelerations=0.611796
objective_balance=0.070604
objective_effort=0.460782
objective_height=3.706957
objective_ligament=0.062786
solver_duration=2802.821512
status=Solve_Succeeded
success=true
DataType=double
version=3
OpenSimVersion=4.4-2022-07-23-0e9fedc
endheader
time	/jointset/ground_pelvis/pelvis_tilt/value	/jointset/ground_pelvis/pelvis_tx/value	/jointset/ground_pelvis/pelvis_ty/value	/jointset/hip_l/hip_flexion_l/value	/jointset/hip_l/hip_adduction_l/value	/jointset/hip_l/hip_rotation_l/value	/jointset/back/lumbar_extension/value	/jointset/patellofemoral_l/patellar_flexion_l/value	/jointset/knee_l/knee_flexion_l/value	/jointset/knee_l/knee_adduction_l/value	/jointset/knee_l/knee_rotation_l/value	/jointset/ankle_l/ankle_angle_l/value	/jointset/subtalar_l/subtalar_angle_l/value	/jointset/ground_pelvis/pelvis_tilt/speed	/jointset/ground_pelvis/pelvis_tx/speed	/jointset/ground_pelvis/pelvis_ty/speed	/jointset/hip_l/hip_flexion_l/speed	/jointset/hip_l/hip_adduction_l/speed	/jointset/hip_l/hip_rotation_l/speed	/jointset/back/lumbar_extension/speed	/jointset/patellofemoral_l/patellar_flexion_l/speed	/jointset/knee_l/knee_flexion_l/speed	/jointset/knee_l/knee_adduction_l/speed	/jointset/knee_l/knee_rotation_l/speed	/jointset/ankle_l/ankle_angle_l/speed	/jointset/subtalar_l/subtalar_angle_l/speed	/forceset/tau_hip_flexion_l	/forceset/tau_hip_adduction_l	/forceset/tau_hip_rotation_l	/forceset/tau_knee_flexion_l	/forceset/tau_ankle_angle_l	/forceset/tau_subtalar_angle_l	/forceset/tau_lumbar_extension	lambda_cid13_p0	lambda_cid13_p1	lambda_cid13_p2	lambda_cid13_p3	lambda_cid13_p4	lambda_cid13_p5	lambda_cid14_p0	/jointset/ground_pelvis/pelvis_tilt/accel	/jointset/ground_pelvis/pelvis_tx/accel	/jointset/ground_pelvis/pelvis_ty/accel	/jointset/hip_l/hip_flexion_l/accel	/jointset/hip_l/hip_adduction_l/accel	/jointset/hip_l/hip_rotation_l/accel	/jointset/back/lumbar_extension/accel	/jointset/patellofemoral_l/patellar_flexion_l/accel	/jointset/knee_l/knee_flexion_l/accel	/jointset/knee_l/knee_adduction_l/accel	/jointset/knee_l/knee_rotation_l/accel	/jointset/ankle_l/ankle_angle_l/accel	/jointset/subtalar_l/subtalar_angle_l/accel	gamma_cid13_p0	gamma_cid13_p1	gamma_cid13_p2	gamma_cid13_p3	gamma_cid13_p4	gamma_cid13_p5	gamma_cid14_p0
0	-0.1599409706526979	0.05849059850256826	0.8979912005201415	0.3774920279260975	-0.2592473045338416	-0.2710954192302186	-0.0126506700172305	0.03223623128433527	0.03223623128433527	-0.1745329251994329	0.1727381890451509	-0.04231376238535053	-0.009393491000184911	0	0	0	0	0	0	0	0	0	0	0	0	0	0.1476523815353913	-0.08665040967495918	-0.04927027481667643	-0.292693169763535	0.2855375064348027	-0.03245877297939729	-0.09456349272240622	50.23638658286377	-0.7632062216821146	6.645830867579105	0.9621190330448295	-583.4037918660487	-78.73065002375162	-39.01796754767095	-4.259997840250264	-2.357542297398602	-1.219819895124473	13.79797922159779	-1.424097670039105	3.667394059175231	-6.182351622942363	10.93244554434415	10.93244554434392	0.2518723958382789	0.1266616411663524	1.559302951658895	-1.098254418606866	-4.039598084199538e-08	1.746106521946457e-07	9.542149876915881e-08	2.693026706136028e-09	1.05793716594887e-07	1.269889426520052e-08	-1.013108532364107e-08
0.01	-0.1601462945131563	0.05837442151003881	0.8979316181197738	0.3781645837331143	-0.2593181948002276	-0.2709127337388638	-0.01296094323107943	0.03277071638150158	0.03277071638150159	-0.174522726689483	0.1727412101546998	-0.04223864305459992	-0.009448729613556372	-0.04084224968412367	-0.0231045462168471	-0.01187147258940684	0.1338403623193394	-0.01410281114950364	0.03634343450198544	-0.0616166000502022	0.1064229351684041	0.1064229351684035	0.002028474405498193	0.0006316163893089251	0.0149940767357711	-0.01097956523624979	0.141867169506326	-0.08939308162145779	-0.04830830623113403	-0.2868996826470263	0.278132664164864	-0.0259926891390159	-0.08965346041108647	48.07091391013183	-3.090711220735808	6.900894375728547	1.369653203358843	-584.7000028827332	-82.83495282582658	-39.03334073830379	-3.962972014974001	-2.267282401866543	-1.16403865948403	13.07643485836793	-1.392123806870581	3.588760365493947	-6.085607788121103	10.42610688957677	10.42610688957683	0.1765028935043924	0.0355156644829395	1.464989443015751	-1.087622014442163	-7.374695972976737e-08	1.708026773678695e-07	1.502138924566e-07	3.186830141915275e-08	-7.125396413585864e-08	7.683828463535519e-09	-2.125944311484712e-08
0.02	-0.1607533675669521	0.05803112473173314	0.8977546754497848	0.3801554171875776	-0.2595278633720016	-0.2703724254585323	-0.01387424116384279	0.03435520870764959	0.03435520870764958	-0.1744926036043118	0.1727513682334756	-0.0420144770747957	-0.009611726766951954	-0.08034983866747095	-0.04542395715524546	-0.02347205392422331	0.2636555294893154	-0.02775566107758473	0.0715245577953208	-0.1206049437828839	0.2100014457963374	0.2100014457963374	0.003983666035095869	0.001427393845408918	0.02980932981072353	-0.02155170800482469	0.1360819574772608	-0.09213575356795638	-0.04734633764559173	-0.2811061955305176	0.2707278218949252	-0.0195266052986345	-0.08474342809976677	45.9992360753938	-5.433434291636204	7.157012667771934	1.616036861989309	-584.5698510196063	-86.81094164703792	-39.0787336735574	-3.993065700095023	-2.200515241708854	-1.165641644206398	12.99294019172513	-1.334105425753991	3.434931817445213	-5.656700359438394	10.36356063624999	10.36356063625	0.237215840672907	0.1594938545245658	1.523538219495162	-1.016769925071886	-1.070979386175394e-07	1.669947025410933e-07	2.050062861440412e-07	6.104357613216947e-08	-2.483016448666042e-07	2.668762661870522e-09	-3.238780090605318e-08
0.03	-0.1617492180944334	0.05746840048981439	0.8974627337255262	0.3834253146987774	-0.2598714697176543	-0.2694856755165758	-0.01536404755269668	0.0369616576916427	0.0369616576916427	-0.1744429172782195	0.1727699626640583	-0.04164307935277543	-0.00987812530089313	-0.1185934433313905	-0.06700343889691411	-0.03489860738017093	0.3896890929556964	-0.04086684598509221	0.105684193496669	-0.1769376748416545	0.3108235650959473	0.3108235650959474	0.005955843887366465	0.002267959643911082	0.04442841119003402	-0.03164376540534455	0.1292469044514359	-0.08719593660619875	-0.04626593713258933	-0.2744719633335113	0.2634368425250477	-0.02011073028970718	-0.0791902143714336	43.67697304508074	-4.864874116847302	7.17115227186951	2.371972969989491	-584.3484819184249	-84.58752194881822	-39.15256526595662	-3.705994749147353	-2.119034464062494	-1.128560039858548	12.31331678958644	-1.284845008730821	3.385265722176473	-5.558760607160218	9.87182621338925	9.87182621338925	0.1776021328409435	0.04278232717065101	1.424815797390028	-0.9928372420147928	-1.329823990860838e-07	1.982696337288755e-07	2.361052344133061e-07	8.50509496901333e-08	-3.694178465056549e-07	1.535567694804245e-08	-3.70300568671387e-08
